# xmcd
#
# Track frame offsets: 
#        150
#        17084
#        32838
#        49953
#        63618
#        79133
#        96524
#        112179
#        127670
#        142402
#        158645
#        173519
#
# Disc length: 2544 seconds
#
# Revision: 0
# Processed by: cddbd v1.5.2PL0 Copyright (c) Steve Scherf et al.
# Submitted via: ExactAudioCopy v1.1
#
DISCID=a609ee0c
DTITLE=Niels Destadsbader - Boven De Wolken
DYEAR=2019
DGENRE=Pop
TTITLE0=Boven De Wolken
TTITLE1=Kijk Niet Om
TTITLE2=Annelies
TTITLE3=Niemand Zo Mooi
TTITLE4=Nu Je Me Loslaat
TTITLE5=Voor Jou Alleen
TTITLE6=Mee Naar Boven
TTITLE7=Ben Ik Bij Jou
TTITLE8=Met Z'n Allen
TTITLE9=In De Lucht
TTITLE10=Als We Samen Zijn
TTITLE11=Wat Zou Ik Zonder Jou
EXTD=
EXTT0=
EXTT1=
EXTT2=
EXTT3=
EXTT4=
EXTT5=
EXTT6=
EXTT7=
EXTT8=
EXTT9=
EXTT10=
EXTT11=
PLAYORDER=
